<svg xmlns="http://www.w3.org/2000/svg" xmlns:xlink="http://www.w3.org/1999/xlink" width="500" zoomAndPan="magnify" viewBox="0 0 375 374.999991" height="500" preserveAspectRatio="xMidYMid meet" version="1.0"><defs><g/><clipPath id="d0c8ea1eba"><rect x="0" width="278" y="0" height="85"/></clipPath><clipPath id="8da09db989"><path d="M 114.480469 45 L 160 45 L 160 231 L 114.480469 231 Z M 114.480469 45 " clip-rule="nonzero"/></clipPath><clipPath id="176335c57b"><path d="M 215 85 L 260.730469 85 L 260.730469 269.984375 L 215 269.984375 Z M 215 85 " clip-rule="nonzero"/></clipPath><clipPath id="d01943d6c9"><path d="M 164 5.234375 L 211 5.234375 L 211 217 L 164 217 Z M 164 5.234375 " clip-rule="nonzero"/></clipPath></defs><g transform="matrix(1, 0, 0, 1, 58, 271)"><g clip-path="url(#d0c8ea1eba)"><g fill="#000000" fill-opacity="1"><g transform="translate(4.076139, 66.572083)"><g><path d="M 13.890625 -19.515625 L 14.25 -15.34375 L 14.640625 -19.515625 L 19.09375 -48.109375 C 19.132812 -48.515625 19.296875 -48.8125 19.578125 -49 C 19.867188 -49.195312 20.179688 -49.296875 20.515625 -49.296875 L 27.671875 -49.296875 C 28.003906 -49.296875 28.222656 -49.175781 28.328125 -48.9375 C 28.429688 -48.695312 28.4375 -48.375 28.34375 -47.96875 L 18.453125 -1.25 C 18.234375 -0.414062 17.78125 0 17.09375 0 L 11.4375 0 C 10.71875 0 10.253906 -0.414062 10.046875 -1.25 L 0.140625 -47.90625 C -0.046875 -48.832031 0.175781 -49.296875 0.8125 -49.296875 L 7.984375 -49.296875 C 8.335938 -49.296875 8.648438 -49.195312 8.921875 -49 C 9.191406 -48.8125 9.351562 -48.515625 9.40625 -48.109375 Z M 13.890625 -19.515625 "/></g></g></g><g fill="#000000" fill-opacity="1"><g transform="translate(54.11775, 66.572083)"><g><path d="M 27.703125 0 L 20.484375 0 C 20.117188 0 19.835938 -0.140625 19.640625 -0.421875 C 19.441406 -0.710938 19.34375 -1.046875 19.34375 -1.421875 L 19.34375 -37.1875 C 19.34375 -38.300781 19.007812 -39.289062 18.34375 -40.15625 C 17.675781 -41.019531 16.75 -41.453125 15.5625 -41.453125 C 14.351562 -41.453125 13.414062 -41.019531 12.75 -40.15625 C 12.082031 -39.289062 11.75 -38.300781 11.75 -37.1875 L 11.75 -1.390625 C 11.75 -1.003906 11.671875 -0.675781 11.515625 -0.40625 C 11.367188 -0.132812 11.09375 0 10.6875 0 L 3.171875 0 C 2.910156 0 2.691406 -0.132812 2.515625 -0.40625 C 2.335938 -0.675781 2.25 -1.003906 2.25 -1.390625 L 2.25 -37.71875 C 2.25 -39.425781 2.601562 -41.023438 3.3125 -42.515625 C 4.019531 -44.015625 4.984375 -45.328125 6.203125 -46.453125 C 7.429688 -47.585938 8.847656 -48.472656 10.453125 -49.109375 C 12.054688 -49.753906 13.75 -50.078125 15.53125 -50.078125 C 17.3125 -50.078125 19 -49.753906 20.59375 -49.109375 C 22.195312 -48.472656 23.613281 -47.585938 24.84375 -46.453125 C 26.082031 -45.328125 27.054688 -44.015625 27.765625 -42.515625 C 28.484375 -41.023438 28.84375 -39.425781 28.84375 -37.71875 L 28.84375 -1.421875 C 28.84375 -1.066406 28.753906 -0.738281 28.578125 -0.4375 C 28.398438 -0.144531 28.109375 0 27.703125 0 Z M 27.703125 0 "/></g></g></g><g fill="#000000" fill-opacity="1"><g transform="translate(106.722882, 66.572083)"><g><path d="M 24.078125 0 L 3.78125 0 C 2.96875 0 2.5625 -0.453125 2.5625 -1.359375 L 2.5625 -47.90625 C 2.5625 -48.832031 2.953125 -49.296875 3.734375 -49.296875 L 10.859375 -49.296875 C 11.640625 -49.296875 12.03125 -48.832031 12.03125 -47.90625 L 12.03125 -8.578125 L 24.078125 -8.578125 C 24.742188 -8.578125 25.078125 -8.175781 25.078125 -7.375 L 25.078125 -1.28125 C 25.078125 -0.425781 24.742188 0 24.078125 0 Z M 24.078125 0 "/></g></g></g><g fill="#000000" fill-opacity="1"><g transform="translate(154.094145, 66.572083)"><g><path d="M 11.75 -37.1875 L 11.75 -20.046875 L 19.34375 -20.046875 L 19.34375 -37.1875 C 19.34375 -38.300781 19.007812 -39.289062 18.34375 -40.15625 C 17.675781 -41.019531 16.75 -41.453125 15.5625 -41.453125 C 14.351562 -41.453125 13.414062 -41.019531 12.75 -40.15625 C 12.082031 -39.289062 11.75 -38.300781 11.75 -37.1875 Z M 28.84375 -37.71875 L 28.84375 -1.421875 C 28.84375 -1.066406 28.753906 -0.738281 28.578125 -0.4375 C 28.398438 -0.144531 28.109375 0 27.703125 0 L 20.484375 0 C 20.117188 0 19.835938 -0.140625 19.640625 -0.421875 C 19.441406 -0.710938 19.34375 -1.046875 19.34375 -1.421875 L 19.34375 -11.75 L 11.75 -11.75 L 11.75 -1.390625 C 11.75 -1.003906 11.675781 -0.675781 11.53125 -0.40625 C 11.394531 -0.132812 11.113281 0 10.6875 0 L 3.171875 0 C 2.910156 0 2.691406 -0.132812 2.515625 -0.40625 C 2.335938 -0.675781 2.25 -1.003906 2.25 -1.390625 L 2.25 -37.71875 C 2.25 -39.425781 2.601562 -41.023438 3.3125 -42.515625 C 4.019531 -44.015625 4.984375 -45.328125 6.203125 -46.453125 C 7.429688 -47.585938 8.847656 -48.472656 10.453125 -49.109375 C 12.054688 -49.753906 13.75 -50.078125 15.53125 -50.078125 C 17.3125 -50.078125 19 -49.753906 20.59375 -49.109375 C 22.195312 -48.472656 23.613281 -47.585938 24.84375 -46.453125 C 26.082031 -45.328125 27.054688 -44.015625 27.765625 -42.515625 C 28.484375 -41.023438 28.84375 -39.425781 28.84375 -37.71875 Z M 28.84375 -37.71875 "/></g></g></g><g fill="#000000" fill-opacity="1"><g transform="translate(206.699278, 66.572083)"><g><path d="M 45.9375 -47.859375 L 45.9375 -11.578125 C 45.9375 -9.296875 45.429688 -7.222656 44.421875 -5.359375 C 43.421875 -3.492188 41.960938 -2.003906 40.046875 -0.890625 C 38.140625 0.222656 35.832031 0.78125 33.125 0.78125 C 31.082031 0.78125 29.328125 0.359375 27.859375 -0.484375 C 26.398438 -1.328125 25.242188 -2.457031 24.390625 -3.875 C 23.492188 -2.457031 22.300781 -1.328125 20.8125 -0.484375 C 19.332031 0.359375 17.570312 0.78125 15.53125 0.78125 C 12.707031 0.78125 10.300781 0.222656 8.3125 -0.890625 C 6.332031 -2.003906 4.828125 -3.492188 3.796875 -5.359375 C 2.765625 -7.222656 2.25 -9.296875 2.25 -11.578125 L 2.25 -47.90625 C 2.25 -48.28125 2.335938 -48.601562 2.515625 -48.875 C 2.691406 -49.15625 2.910156 -49.296875 3.171875 -49.296875 L 10.6875 -49.296875 C 11.09375 -49.296875 11.367188 -49.15625 11.515625 -48.875 C 11.671875 -48.601562 11.75 -48.28125 11.75 -47.90625 L 11.75 -12.109375 C 11.75 -11.367188 11.894531 -10.664062 12.1875 -10 C 12.488281 -9.34375 12.914062 -8.8125 13.46875 -8.40625 C 14.03125 -8 14.703125 -7.796875 15.484375 -7.796875 C 16.742188 -7.796875 17.703125 -8.234375 18.359375 -9.109375 C 19.015625 -9.992188 19.34375 -10.992188 19.34375 -12.109375 L 19.34375 -47.90625 C 19.34375 -48.28125 19.4375 -48.601562 19.625 -48.875 C 19.8125 -49.15625 20.035156 -49.296875 20.296875 -49.296875 L 27.78125 -49.296875 C 28.207031 -49.296875 28.488281 -49.15625 28.625 -48.875 C 28.769531 -48.601562 28.84375 -48.28125 28.84375 -47.90625 L 28.84375 -12.109375 C 28.84375 -10.992188 29.171875 -9.992188 29.828125 -9.109375 C 30.484375 -8.234375 31.425781 -7.796875 32.65625 -7.796875 C 33.914062 -7.796875 34.863281 -8.234375 35.5 -9.109375 C 36.144531 -9.992188 36.46875 -10.992188 36.46875 -12.109375 L 36.46875 -47.859375 C 36.46875 -48.242188 36.5625 -48.578125 36.75 -48.859375 C 36.9375 -49.148438 37.210938 -49.296875 37.578125 -49.296875 L 44.796875 -49.296875 C 45.203125 -49.296875 45.492188 -49.144531 45.671875 -48.84375 C 45.847656 -48.550781 45.9375 -48.222656 45.9375 -47.859375 Z M 45.9375 -47.859375 "/></g></g></g></g></g><g clip-path="url(#8da09db989)"><path fill="#000000" d="M 159.742188 45.730469 L 114.554688 77.144531 L 114.554688 201.082031 L 159.742188 230.777344 L 159.742188 119.152344 C 151.914062 121.519531 148.59375 122.5625 143.585938 122.507812 C 143.328125 122.503906 143.0625 122.496094 142.808594 122.480469 L 148.207031 133.953125 L 150.15625 133.953125 C 150.15625 140.925781 144.507812 146.574219 137.539062 146.574219 C 130.566406 146.574219 124.914062 140.925781 124.914062 133.953125 L 126.871094 133.953125 L 134.457031 117.820312 C 134.128906 117.234375 133.9375 116.554688 133.9375 115.828125 C 133.9375 113.574219 135.765625 111.753906 138.011719 111.753906 C 140.261719 111.75 142.085938 113.574219 142.085938 115.828125 C 142.085938 116.589844 141.871094 117.304688 141.503906 117.917969 C 143.675781 118.117188 146.355469 117.695312 149.566406 115.863281 C 153.113281 113.839844 156.492188 112.054688 159.742188 110.527344 Z M 140.164062 122.035156 C 138.398438 121.546875 136.976562 120.722656 135.960938 119.789062 L 129.300781 133.953125 L 145.769531 133.953125 Z M 140.164062 122.035156 " fill-opacity="1" fill-rule="evenodd"/></g><g clip-path="url(#176335c57b)"><path fill="#000000" d="M 215.257812 85.488281 L 260.445312 116.90625 L 260.445312 240.839844 L 215.257812 270.535156 L 215.257812 119.152344 C 223.078125 121.519531 226.402344 122.5625 231.410156 122.507812 C 231.675781 122.503906 231.9375 122.496094 232.199219 122.480469 L 226.796875 133.953125 L 224.847656 133.953125 C 224.847656 140.925781 230.5 146.574219 237.464844 146.574219 C 244.433594 146.574219 250.089844 140.925781 250.089844 133.953125 L 248.132812 133.953125 L 240.546875 117.820312 C 240.875 117.234375 241.066406 116.554688 241.066406 115.828125 C 241.066406 113.574219 239.238281 111.753906 236.992188 111.753906 C 234.742188 111.75 232.921875 113.574219 232.921875 115.828125 C 232.921875 116.589844 233.132812 117.304688 233.492188 117.917969 C 231.320312 118.117188 228.644531 117.695312 225.4375 115.863281 C 221.890625 113.839844 218.511719 112.054688 215.261719 110.527344 L 215.261719 85.488281 Z M 239.03125 119.789062 C 238.019531 120.722656 236.59375 121.546875 234.832031 122.035156 L 229.222656 133.953125 L 245.691406 133.953125 Z M 239.03125 119.789062 " fill-opacity="1" fill-rule="evenodd"/></g><g clip-path="url(#d01943d6c9)"><path fill="#d2ae6d" d="M 210.097656 5.011719 L 164.902344 40.886719 L 164.902344 108.253906 C 171.859375 105.429688 178.28125 103.832031 184.632812 103.464844 L 181.503906 85.53125 L 187.5 80.949219 L 193.496094 85.53125 L 190.367188 103.457031 C 196.71875 103.832031 203.140625 105.429688 210.097656 108.253906 Z M 164.902344 117.605469 L 164.902344 122.253906 L 210.089844 122.253906 L 210.089844 117.605469 L 207.964844 116.984375 C 196.925781 113.78125 178.058594 113.78125 167.015625 116.984375 C 166.289062 117.195312 165.582031 117.402344 164.902344 117.605469 Z M 164.902344 129.777344 L 164.902344 182.398438 L 210.097656 216.300781 L 210.097656 129.777344 C 208.746094 129.367188 207.710938 128.242188 207.433594 126.839844 L 189.792969 126.839844 L 189.792969 183.140625 L 185.207031 183.140625 L 185.207031 126.839844 L 167.5625 126.839844 C 167.289062 128.242188 166.253906 129.375 164.902344 129.777344 Z M 180.707031 130.800781 L 180.707031 183.167969 L 172.703125 183.167969 L 172.703125 178.582031 L 176.121094 178.582031 L 176.121094 130.800781 Z M 194.292969 130.800781 L 194.292969 183.167969 L 202.292969 183.167969 L 202.292969 178.582031 L 198.878906 178.582031 L 198.878906 130.800781 Z M 194.292969 130.800781 " fill-opacity="1" fill-rule="evenodd"/></g></svg>